<svg width="500" height="500" viewBox="0 0 500 500" fill="none" xmlns="http://www.w3.org/2000/svg">
<g clip-path="url(#clip0_63_7)">
<rect width="500" height="500" fill="white"/>
<path d="M165.699 275.553C160.777 272.853 156.962 269.235 154.254 264.698C151.547 260.162 150.194 255.067 150.194 249.411V178.718L114.753 159.203C112.045 157.731 110.076 155.89 108.846 153.681C107.615 151.471 107 149.017 107 146.317C107 143.617 107.615 141.162 108.846 138.953C110.076 136.744 112.045 134.903 114.753 133.43L239.534 65.6822C241.749 64.4549 244.028 63.5319 246.371 62.9133C248.714 62.2948 251.111 61.9904 253.563 62.0002C256.014 62.01 258.416 62.3193 260.769 62.9281C263.122 63.5368 265.396 64.4549 267.591 65.6822L408.247 142.267C410.708 143.494 412.618 145.276 413.977 147.613C415.335 149.95 416.01 152.463 416 155.153V249.411C416 253.584 414.582 257.084 411.747 259.912C408.912 262.74 405.407 264.149 401.233 264.139C397.059 264.129 393.554 262.715 390.719 259.897C387.883 257.079 386.466 253.584 386.466 249.411V162.517L356.932 178.718V249.411C356.932 255.057 355.578 260.153 352.871 264.698C350.164 269.244 346.349 272.863 341.426 275.553L267.591 315.318C265.376 316.545 263.102 317.468 260.769 318.087C258.436 318.705 256.034 319.01 253.563 319C251.092 318.99 248.69 318.686 246.356 318.087C244.023 317.488 241.749 316.565 239.534 315.318L165.699 275.553ZM253.563 200.809L354.717 146.317L253.563 91.824L152.409 146.317L253.563 200.809ZM253.563 289.544L327.398 249.779V194.182L267.961 226.951C265.745 228.179 263.407 229.101 260.946 229.72C258.485 230.339 256.024 230.643 253.563 230.633C251.102 230.623 248.64 230.319 246.179 229.72C243.718 229.121 241.38 228.198 239.165 226.951L179.728 194.182V249.779L253.563 289.544Z" fill="black"/>
<path d="M171.229 445.56C165.162 445.56 159.442 444.477 154.069 442.31C148.782 440.057 144.189 436.893 140.289 432.82C136.476 428.747 133.616 423.937 131.709 418.39L148.219 410.98C150.646 416.267 153.982 420.427 158.229 423.46C162.562 426.493 167.329 428.01 172.529 428.01C175.302 428.01 177.686 427.577 179.679 426.71C181.672 425.843 183.232 424.673 184.359 423.2C185.486 421.64 186.049 419.82 186.049 417.74C186.049 415.487 185.356 413.58 183.969 412.02C182.582 410.373 180.416 409.073 177.469 408.12L158.489 401.88C150.776 399.367 144.969 395.813 141.069 391.22C137.169 386.54 135.219 380.95 135.219 374.45C135.219 368.73 136.606 363.703 139.379 359.37C142.239 355.037 146.182 351.657 151.209 349.23C156.322 346.803 162.172 345.59 168.759 345.59C174.566 345.59 179.939 346.587 184.879 348.58C189.819 350.573 194.066 353.39 197.619 357.03C201.259 360.67 203.989 365.047 205.809 370.16L189.429 377.57C187.609 373.063 184.879 369.553 181.239 367.04C177.599 364.44 173.439 363.14 168.759 363.14C166.072 363.14 163.689 363.573 161.609 364.44C159.529 365.307 157.926 366.563 156.799 368.21C155.672 369.77 155.109 371.59 155.109 373.67C155.109 375.923 155.846 377.917 157.319 379.65C158.792 381.297 161.002 382.597 163.949 383.55L182.539 389.53C190.339 392.043 196.146 395.553 199.959 400.06C203.859 404.567 205.809 410.07 205.809 416.57C205.809 422.203 204.336 427.23 201.389 431.65C198.442 435.983 194.369 439.407 189.169 441.92C184.056 444.347 178.076 445.56 171.229 445.56ZM218.739 444V345.59H238.239V387.06L235.899 383.94C237.546 379.693 240.189 376.573 243.829 374.58C247.556 372.5 251.889 371.46 256.829 371.46C262.202 371.46 266.882 372.587 270.869 374.84C274.942 377.093 278.106 380.257 280.359 384.33C282.612 388.317 283.739 392.997 283.739 398.37V444H264.239V402.53C264.239 399.757 263.676 397.373 262.549 395.38C261.509 393.387 259.992 391.827 257.999 390.7C256.092 389.573 253.839 389.01 251.239 389.01C248.726 389.01 246.472 389.573 244.479 390.7C242.486 391.827 240.926 393.387 239.799 395.38C238.759 397.373 238.239 399.757 238.239 402.53V444H218.739ZM333.221 445.56C327.154 445.56 321.434 444.477 316.061 442.31C310.774 440.057 306.181 436.893 302.281 432.82C298.468 428.747 295.608 423.937 293.701 418.39L310.211 410.98C312.638 416.267 315.974 420.427 320.221 423.46C324.554 426.493 329.321 428.01 334.521 428.01C337.294 428.01 339.678 427.577 341.671 426.71C343.664 425.843 345.224 424.673 346.351 423.2C347.478 421.64 348.041 419.82 348.041 417.74C348.041 415.487 347.348 413.58 345.961 412.02C344.574 410.373 342.408 409.073 339.461 408.12L320.481 401.88C312.768 399.367 306.961 395.813 303.061 391.22C299.161 386.54 297.211 380.95 297.211 374.45C297.211 368.73 298.598 363.703 301.371 359.37C304.231 355.037 308.174 351.657 313.201 349.23C318.314 346.803 324.164 345.59 330.751 345.59C336.558 345.59 341.931 346.587 346.871 348.58C351.811 350.573 356.058 353.39 359.611 357.03C363.251 360.67 365.981 365.047 367.801 370.16L351.421 377.57C349.601 373.063 346.871 369.553 343.231 367.04C339.591 364.44 335.431 363.14 330.751 363.14C328.064 363.14 325.681 363.573 323.601 364.44C321.521 365.307 319.918 366.563 318.791 368.21C317.664 369.77 317.101 371.59 317.101 373.67C317.101 375.923 317.838 377.917 319.311 379.65C320.784 381.297 322.994 382.597 325.941 383.55L344.531 389.53C352.331 392.043 358.138 395.553 361.951 400.06C365.851 404.567 367.801 410.07 367.801 416.57C367.801 422.203 366.328 427.23 363.381 431.65C360.434 435.983 356.361 439.407 351.161 441.92C346.048 444.347 340.068 445.56 333.221 445.56Z" fill="black"/>
</g>
<defs>
<clipPath id="clip0_63_7">
<rect width="500" height="500" rx="110" fill="white"/>
</clipPath>
</defs>
</svg>
